<svg width="377" height="272" viewBox="0 0 377 272" fill="none" xmlns="http://www.w3.org/2000/svg">
<g clip-path="url(#clip0_19_619)">
<path d="M377 0H0V272H377V0Z" fill="white"/>
<path d="M103 206.6H355.4" stroke="black" stroke-width="0.75" stroke-miterlimit="10" stroke-linecap="round" stroke-linejoin="round"/>
<path d="M103 206.6V213.8" stroke="black" stroke-width="0.75" stroke-miterlimit="10" stroke-linecap="round" stroke-linejoin="round"/>
<path d="M166.1 206.6V213.8" stroke="black" stroke-width="0.75" stroke-miterlimit="10" stroke-linecap="round" stroke-linejoin="round"/>
<path d="M229.2 206.6V213.8" stroke="black" stroke-width="0.75" stroke-miterlimit="10" stroke-linecap="round" stroke-linejoin="round"/>
<path d="M292.3 206.6V213.8" stroke="black" stroke-width="0.75" stroke-miterlimit="10" stroke-linecap="round" stroke-linejoin="round"/>
<path d="M355.4 206.6V213.8" stroke="black" stroke-width="0.75" stroke-miterlimit="10" stroke-linecap="round" stroke-linejoin="round"/>
<path d="M100.524 232.48V231.713L103.404 228.56C103.742 228.191 104.021 227.87 104.239 227.597C104.458 227.321 104.62 227.063 104.725 226.821C104.833 226.577 104.887 226.321 104.887 226.054C104.887 225.748 104.813 225.482 104.666 225.257C104.521 225.033 104.322 224.86 104.069 224.738C103.816 224.615 103.532 224.554 103.217 224.554C102.881 224.554 102.589 224.624 102.339 224.763C102.092 224.9 101.9 225.091 101.764 225.338C101.63 225.586 101.563 225.875 101.563 226.208H100.558C100.558 225.696 100.676 225.248 100.911 224.861C101.147 224.475 101.468 224.174 101.874 223.958C102.283 223.742 102.742 223.634 103.251 223.634C103.762 223.634 104.215 223.742 104.61 223.958C105.005 224.174 105.315 224.465 105.539 224.831C105.764 225.198 105.876 225.605 105.876 226.054C105.876 226.375 105.818 226.689 105.701 226.996C105.587 227.3 105.389 227.64 105.104 228.015C104.823 228.387 104.433 228.841 103.933 229.378L101.972 231.475V231.543H106.029V232.48H100.524Z" fill="black"/>
<path d="M163.429 230.691V229.821L167.264 223.753H167.895V225.1H167.469L164.571 229.685V229.753H169.736V230.691H163.429ZM167.537 232.48V230.426V230.022V223.753H168.542V232.48H167.537Z" fill="black"/>
<path d="M229.641 232.6C229.283 232.594 228.925 232.526 228.567 232.395C228.209 232.265 227.882 232.044 227.587 231.735C227.292 231.422 227.054 231 226.875 230.469C226.696 229.935 226.607 229.265 226.607 228.458C226.607 227.685 226.679 227 226.824 226.404C226.969 225.804 227.179 225.3 227.455 224.891C227.73 224.479 228.063 224.167 228.452 223.953C228.844 223.74 229.286 223.634 229.777 223.634C230.266 223.634 230.701 223.732 231.081 223.928C231.465 224.121 231.777 224.391 232.019 224.738C232.26 225.084 232.417 225.483 232.488 225.935H231.448C231.351 225.543 231.164 225.218 230.885 224.959C230.607 224.701 230.238 224.571 229.777 224.571C229.101 224.571 228.569 224.865 228.179 225.453C227.793 226.042 227.598 226.867 227.596 227.929H227.664C227.823 227.688 228.012 227.482 228.23 227.311C228.452 227.138 228.696 227.005 228.963 226.911C229.23 226.817 229.513 226.77 229.811 226.77C230.311 226.77 230.769 226.895 231.184 227.145C231.598 227.392 231.931 227.735 232.181 228.172C232.431 228.607 232.556 229.105 232.556 229.668C232.556 230.208 232.435 230.702 232.194 231.151C231.952 231.597 231.613 231.952 231.175 232.216C230.74 232.478 230.229 232.605 229.641 232.6ZM229.641 231.662C229.999 231.662 230.32 231.573 230.604 231.394C230.891 231.215 231.117 230.975 231.282 230.674C231.449 230.373 231.533 230.037 231.533 229.668C231.533 229.307 231.452 228.979 231.29 228.684C231.131 228.385 230.911 228.148 230.63 227.972C230.351 227.796 230.033 227.708 229.675 227.708C229.405 227.708 229.154 227.762 228.921 227.87C228.688 227.975 228.483 228.12 228.307 228.304C228.134 228.489 227.998 228.701 227.898 228.939C227.799 229.175 227.749 229.424 227.749 229.685C227.749 230.032 227.83 230.355 227.992 230.657C228.157 230.958 228.381 231.201 228.665 231.385C228.952 231.57 229.277 231.662 229.641 231.662Z" fill="black"/>
<path d="M292.649 232.6C292.064 232.6 291.547 232.496 291.098 232.289C290.652 232.078 290.304 231.79 290.054 231.424C289.804 231.054 289.68 230.634 289.683 230.162C289.68 229.793 289.753 229.452 289.9 229.14C290.048 228.824 290.25 228.561 290.506 228.351C290.764 228.138 291.052 228.003 291.371 227.946V227.895C290.953 227.787 290.621 227.553 290.373 227.192C290.126 226.828 290.004 226.415 290.007 225.952C290.004 225.509 290.116 225.113 290.344 224.763C290.571 224.414 290.883 224.138 291.281 223.936C291.682 223.735 292.138 223.634 292.649 223.634C293.155 223.634 293.606 223.735 294.004 223.936C294.402 224.138 294.714 224.414 294.942 224.763C295.172 225.113 295.288 225.509 295.291 225.952C295.288 226.415 295.162 226.828 294.912 227.192C294.665 227.553 294.337 227.787 293.927 227.895V227.946C294.243 228.003 294.527 228.138 294.78 228.351C295.033 228.561 295.234 228.824 295.385 229.14C295.535 229.452 295.612 229.793 295.615 230.162C295.612 230.634 295.484 231.054 295.231 231.424C294.981 231.79 294.633 232.078 294.187 232.289C293.744 232.496 293.231 232.6 292.649 232.6ZM292.649 231.662C293.044 231.662 293.385 231.598 293.672 231.471C293.959 231.343 294.18 231.162 294.337 230.929C294.493 230.696 294.572 230.424 294.575 230.111C294.572 229.782 294.487 229.49 294.32 229.238C294.152 228.985 293.923 228.786 293.633 228.641C293.347 228.496 293.018 228.424 292.649 228.424C292.277 228.424 291.945 228.496 291.652 228.641C291.362 228.786 291.133 228.985 290.966 229.238C290.801 229.49 290.72 229.782 290.723 230.111C290.72 230.424 290.795 230.696 290.949 230.929C291.105 231.162 291.328 231.343 291.618 231.471C291.908 231.598 292.251 231.662 292.649 231.662ZM292.649 227.52C292.962 227.52 293.239 227.458 293.48 227.333C293.724 227.208 293.916 227.033 294.055 226.809C294.195 226.584 294.266 226.321 294.268 226.02C294.266 225.725 294.196 225.468 294.06 225.249C293.923 225.027 293.734 224.857 293.493 224.738C293.251 224.615 292.97 224.554 292.649 224.554C292.322 224.554 292.037 224.615 291.793 224.738C291.548 224.857 291.359 225.027 291.226 225.249C291.092 225.468 291.027 225.725 291.03 226.02C291.027 226.321 291.094 226.584 291.23 226.809C291.369 227.033 291.561 227.208 291.805 227.333C292.05 227.458 292.331 227.52 292.649 227.52Z" fill="black"/>
<path d="M352.702 223.753V232.48H351.645V224.861H351.594L349.463 226.276V225.202L351.645 223.753H352.702ZM358.059 232.6C357.417 232.6 356.87 232.425 356.418 232.076C355.966 231.723 355.621 231.213 355.382 230.546C355.144 229.875 355.025 229.066 355.025 228.117C355.025 227.174 355.144 226.368 355.382 225.701C355.624 225.03 355.971 224.519 356.422 224.167C356.877 223.811 357.422 223.634 358.059 223.634C358.695 223.634 359.239 223.811 359.691 224.167C360.145 224.519 360.492 225.03 360.73 225.701C360.972 226.368 361.093 227.174 361.093 228.117C361.093 229.066 360.973 229.875 360.735 230.546C360.496 231.213 360.151 231.723 359.699 232.076C359.248 232.425 358.701 232.6 358.059 232.6ZM358.059 231.662C358.695 231.662 359.189 231.355 359.542 230.742C359.894 230.128 360.07 229.253 360.07 228.117C360.07 227.361 359.989 226.718 359.827 226.186C359.668 225.655 359.438 225.25 359.137 224.972C358.838 224.694 358.479 224.554 358.059 224.554C357.428 224.554 356.935 224.865 356.58 225.488C356.225 226.107 356.047 226.983 356.047 228.117C356.047 228.873 356.127 229.515 356.286 230.043C356.445 230.571 356.674 230.973 356.972 231.249C357.273 231.525 357.635 231.662 358.059 231.662Z" fill="black"/>
<path d="M60 199.5V38.8999" stroke="black" stroke-width="0.75" stroke-miterlimit="10" stroke-linecap="round" stroke-linejoin="round"/>
<path d="M60 199.5H52.8" stroke="black" stroke-width="0.75" stroke-miterlimit="10" stroke-linecap="round" stroke-linejoin="round"/>
<path d="M60 167.4H52.8" stroke="black" stroke-width="0.75" stroke-miterlimit="10" stroke-linecap="round" stroke-linejoin="round"/>
<path d="M60 135.3H52.8" stroke="black" stroke-width="0.75" stroke-miterlimit="10" stroke-linecap="round" stroke-linejoin="round"/>
<path d="M60 103.1H52.8" stroke="black" stroke-width="0.75" stroke-miterlimit="10" stroke-linecap="round" stroke-linejoin="round"/>
<path d="M60 71H52.8" stroke="black" stroke-width="0.75" stroke-miterlimit="10" stroke-linecap="round" stroke-linejoin="round"/>
<path d="M60 38.8999H52.8" stroke="black" stroke-width="0.75" stroke-miterlimit="10" stroke-linecap="round" stroke-linejoin="round"/>
<path d="M42.8795 204.08C42.8795 204.722 42.7047 205.269 42.3553 205.721C42.003 206.172 41.4931 206.518 40.8255 206.756C40.155 206.995 39.3454 207.114 38.3965 207.114C37.4533 207.114 36.6479 206.995 35.9803 206.756C35.3098 206.515 34.7985 206.168 34.4462 205.716C34.0911 205.262 33.9135 204.716 33.9135 204.08C33.9135 203.444 34.0911 202.9 34.4462 202.448C34.7985 201.993 35.3098 201.647 35.9803 201.408C36.6479 201.167 37.4533 201.046 38.3965 201.046C39.3454 201.046 40.155 201.165 40.8255 201.404C41.4931 201.643 42.003 201.988 42.3553 202.439C42.7047 202.891 42.8795 203.438 42.8795 204.08ZM41.9419 204.08C41.9419 203.444 41.6351 202.949 41.0215 202.597C40.4079 202.245 39.5329 202.069 38.3965 202.069C37.6408 202.069 36.9973 202.15 36.4661 202.312C35.9348 202.471 35.53 202.701 35.2516 203.002C34.9732 203.3 34.834 203.66 34.834 204.08C34.834 204.711 35.1451 205.204 35.7672 205.559C36.3866 205.914 37.263 206.091 38.3965 206.091C39.1522 206.091 39.7942 206.012 40.3226 205.853C40.851 205.694 41.253 205.465 41.5286 205.167C41.8042 204.866 41.9419 204.503 41.9419 204.08ZM42.8283 198.981C42.8283 199.192 42.753 199.372 42.6025 199.523C42.4519 199.673 42.2715 199.748 42.0613 199.748C41.851 199.748 41.6706 199.673 41.5201 199.523C41.3695 199.372 41.2942 199.192 41.2942 198.981C41.2942 198.771 41.3695 198.591 41.5201 198.44C41.6706 198.29 41.851 198.214 42.0613 198.214C42.2005 198.214 42.3283 198.25 42.4448 198.321C42.5613 198.389 42.655 198.481 42.726 198.598C42.7942 198.711 42.8283 198.839 42.8283 198.981ZM34.0329 194.401H42.7601V195.458H35.1408V195.509L36.5556 197.64H35.4817L34.0329 195.458V194.401Z" fill="black"/>
<path d="M42.879 171.971C42.879 172.613 42.7042 173.16 42.3548 173.611C42.0025 174.063 41.4926 174.408 40.825 174.647C40.1545 174.885 39.3449 175.005 38.396 175.005C37.4528 175.005 36.6474 174.885 35.9798 174.647C35.3094 174.405 34.798 174.059 34.4457 173.607C34.0906 173.153 33.9131 172.607 33.9131 171.971C33.9131 171.334 34.0906 170.79 34.4457 170.339C34.798 169.884 35.3094 169.537 35.9798 169.299C36.6474 169.057 37.4528 168.937 38.396 168.937C39.3449 168.937 40.1545 169.056 40.825 169.295C41.4926 169.533 42.0025 169.878 42.3548 170.33C42.7042 170.782 42.879 171.329 42.879 171.971ZM41.9415 171.971C41.9415 171.334 41.6346 170.84 41.021 170.488C40.4074 170.135 39.5324 169.959 38.396 169.959C37.6403 169.959 36.9969 170.04 36.4656 170.202C35.9344 170.361 35.5295 170.591 35.2511 170.893C34.9727 171.191 34.8335 171.55 34.8335 171.971C34.8335 172.601 35.1446 173.094 35.7667 173.449C36.3861 173.805 37.2625 173.982 38.396 173.982C39.1517 173.982 39.7937 173.903 40.3221 173.743C40.8506 173.584 41.2525 173.356 41.5281 173.057C41.8037 172.756 41.9415 172.394 41.9415 171.971ZM42.8278 166.872C42.8278 167.082 42.7525 167.263 42.602 167.413C42.4514 167.564 42.271 167.639 42.0608 167.639C41.8506 167.639 41.6702 167.564 41.5196 167.413C41.369 167.263 41.2937 167.082 41.2937 166.872C41.2937 166.662 41.369 166.481 41.5196 166.331C41.6702 166.18 41.8506 166.105 42.0608 166.105C42.2 166.105 42.3278 166.14 42.4443 166.211C42.5608 166.28 42.6545 166.372 42.7256 166.488C42.7937 166.602 42.8278 166.73 42.8278 166.872ZM42.7596 164.317H41.9926L38.8392 161.437C38.4699 161.099 38.1488 160.82 37.8761 160.601C37.6006 160.383 37.342 160.221 37.1006 160.116C36.8562 160.008 36.6006 159.954 36.3335 159.954C36.0267 159.954 35.7611 160.028 35.5366 160.175C35.3122 160.32 35.1389 160.519 35.0167 160.772C34.8946 161.025 34.8335 161.309 34.8335 161.624C34.8335 161.959 34.9031 162.252 35.0423 162.502C35.1787 162.749 35.3704 162.941 35.6176 163.077C35.8648 163.211 36.1545 163.278 36.4869 163.278V164.283C35.9756 164.283 35.5267 164.165 35.1403 163.93C34.754 163.694 34.4528 163.373 34.2369 162.966C34.021 162.557 33.9131 162.099 33.9131 161.59C33.9131 161.079 34.021 160.626 34.2369 160.231C34.4528 159.836 34.744 159.526 35.1105 159.302C35.477 159.077 35.8846 158.965 36.3335 158.965C36.6545 158.965 36.9685 159.023 37.2753 159.14C37.5792 159.253 37.9187 159.452 38.2937 159.736C38.6659 160.018 39.1204 160.408 39.6574 160.908L41.754 162.868H41.8221V158.812H42.7596V164.317Z" fill="black"/>
<path d="M42.879 139.851C42.879 140.493 42.7042 141.04 42.3548 141.491C42.0025 141.943 41.4926 142.288 40.825 142.527C40.1545 142.765 39.3449 142.885 38.396 142.885C37.4528 142.885 36.6474 142.765 35.9798 142.527C35.3094 142.285 34.798 141.939 34.4457 141.487C34.0906 141.032 33.9131 140.487 33.9131 139.851C33.9131 139.214 34.0906 138.67 34.4457 138.218C34.798 137.764 35.3094 137.417 35.9798 137.179C36.6474 136.937 37.4528 136.816 38.396 136.816C39.3449 136.816 40.1545 136.936 40.825 137.174C41.4926 137.413 42.0025 137.758 42.3548 138.21C42.7042 138.662 42.879 139.209 42.879 139.851ZM41.9415 139.851C41.9415 139.214 41.6346 138.72 41.021 138.368C40.4074 138.015 39.5324 137.839 38.396 137.839C37.6403 137.839 36.9969 137.92 36.4656 138.082C35.9344 138.241 35.5295 138.471 35.2511 138.772C34.9727 139.071 34.8335 139.43 34.8335 139.851C34.8335 140.481 35.1446 140.974 35.7667 141.329C36.3861 141.684 37.2625 141.862 38.396 141.862C39.1517 141.862 39.7937 141.782 40.3221 141.623C40.8506 141.464 41.2525 141.236 41.5281 140.937C41.8037 140.636 41.9415 140.274 41.9415 139.851ZM42.8278 134.752C42.8278 134.962 42.7525 135.142 42.602 135.293C42.4514 135.444 42.271 135.519 42.0608 135.519C41.8506 135.519 41.6702 135.444 41.5196 135.293C41.369 135.142 41.2937 134.962 41.2937 134.752C41.2937 134.542 41.369 134.361 41.5196 134.211C41.6702 134.06 41.8506 133.985 42.0608 133.985C42.2 133.985 42.3278 134.02 42.4443 134.091C42.5608 134.16 42.6545 134.252 42.7256 134.368C42.7937 134.482 42.8278 134.61 42.8278 134.752ZM42.879 129.576C42.879 130.139 42.7824 130.64 42.5892 131.081C42.396 131.518 42.1275 131.866 41.7838 132.125C41.4372 132.38 41.0352 132.52 40.5778 132.542V131.468C40.8591 131.446 41.102 131.349 41.3065 131.179C41.5082 131.008 41.6645 130.785 41.7753 130.51C41.8861 130.234 41.9415 129.929 41.9415 129.593C41.9415 129.218 41.8761 128.886 41.7454 128.596C41.6148 128.307 41.4329 128.079 41.2 127.915C40.967 127.75 40.6971 127.667 40.3903 127.667C40.0693 127.667 39.7866 127.747 39.5423 127.906C39.2952 128.065 39.102 128.298 38.9628 128.605C38.8236 128.912 38.754 129.287 38.754 129.73V130.429H37.8165V129.73C37.8165 129.383 37.754 129.079 37.629 128.818C37.504 128.554 37.3278 128.348 37.1006 128.2C36.8733 128.049 36.6062 127.974 36.2994 127.974C36.004 127.974 35.7469 128.04 35.5281 128.17C35.3094 128.301 35.1389 128.486 35.0167 128.724C34.8946 128.96 34.8335 129.238 34.8335 129.559C34.8335 129.861 34.8889 130.145 34.9997 130.412C35.1077 130.676 35.2653 130.892 35.4727 131.059C35.6773 131.227 35.9244 131.318 36.2142 131.332V132.355C35.7568 132.338 35.3562 132.2 35.0125 131.941C34.6659 131.683 34.396 131.345 34.2028 130.927C34.0096 130.507 33.9131 130.045 33.9131 129.542C33.9131 129.003 34.0224 128.54 34.2412 128.153C34.4571 127.767 34.7426 127.47 35.0977 127.263C35.4528 127.055 35.8363 126.951 36.2483 126.951C36.7398 126.951 37.1588 127.081 37.5054 127.339C37.852 127.595 38.092 127.943 38.2256 128.383H38.2937C38.3846 127.832 38.619 127.402 38.9969 127.092C39.3719 126.782 39.8363 126.628 40.3903 126.628C40.8648 126.628 41.2909 126.757 41.6687 127.015C42.0437 127.271 42.3392 127.62 42.5551 128.064C42.771 128.507 42.879 129.011 42.879 129.576Z" fill="black"/>
<path d="M42.8796 107.74C42.8796 108.382 42.7049 108.929 42.3554 109.381C42.0032 109.833 41.4932 110.178 40.8256 110.416C40.1551 110.655 39.3455 110.774 38.3966 110.774C37.4534 110.774 36.648 110.655 35.9804 110.416C35.31 110.175 34.7986 109.828 34.4463 109.377C34.0912 108.922 33.9137 108.377 33.9137 107.74C33.9137 107.104 34.0912 106.56 34.4463 106.108C34.7986 105.654 35.31 105.307 35.9804 105.068C36.648 104.827 37.4534 104.706 38.3966 104.706C39.3455 104.706 40.1551 104.825 40.8256 105.064C41.4932 105.303 42.0032 105.648 42.3554 106.1C42.7049 106.551 42.8796 107.098 42.8796 107.74ZM41.9421 107.74C41.9421 107.104 41.6353 106.61 41.0216 106.257C40.408 105.905 39.533 105.729 38.3966 105.729C37.6409 105.729 36.9975 105.81 36.4662 105.972C35.935 106.131 35.5301 106.361 35.2517 106.662C34.9733 106.96 34.8341 107.32 34.8341 107.74C34.8341 108.371 35.1452 108.864 35.7674 109.219C36.3867 109.574 37.2631 109.752 38.3966 109.752C39.1523 109.752 39.7943 109.672 40.3228 109.513C40.8512 109.354 41.2532 109.125 41.5287 108.827C41.8043 108.526 41.9421 108.164 41.9421 107.74ZM42.8284 102.642C42.8284 102.852 42.7532 103.032 42.6026 103.183C42.452 103.333 42.2716 103.409 42.0614 103.409C41.8512 103.409 41.6708 103.333 41.5202 103.183C41.3696 103.032 41.2943 102.852 41.2943 102.642C41.2943 102.431 41.3696 102.251 41.5202 102.1C41.6708 101.95 41.8512 101.874 42.0614 101.874C42.2006 101.874 42.3284 101.91 42.4449 101.981C42.5614 102.049 42.6551 102.142 42.7262 102.258C42.7943 102.372 42.8284 102.499 42.8284 102.642ZM40.9705 100.291H40.1012L34.033 96.4561V95.8255H35.3796V96.2516L39.9648 99.1493H40.033V93.9846H40.9705V100.291ZM42.7603 96.1834H40.7063H40.3014H34.033V95.1777H42.7603V96.1834Z" fill="black"/>
<path d="M42.8795 75.6201C42.8795 76.2622 42.7047 76.809 42.3553 77.2607C42.003 77.7124 41.4931 78.0576 40.8255 78.2963C40.155 78.5349 39.3454 78.6542 38.3965 78.6542C37.4533 78.6542 36.6479 78.5349 35.9803 78.2963C35.3098 78.0548 34.7985 77.7082 34.4462 77.2565C34.0911 76.8019 33.9135 76.2565 33.9135 75.6201C33.9135 74.9838 34.0911 74.4397 34.4462 73.988C34.7985 73.5335 35.3098 73.1869 35.9803 72.9482C36.6479 72.7068 37.4533 72.586 38.3965 72.586C39.3454 72.586 40.155 72.7053 40.8255 72.944C41.4931 73.1826 42.003 73.5278 42.3553 73.9795C42.7047 74.4312 42.8795 74.9781 42.8795 75.6201ZM41.9419 75.6201C41.9419 74.9838 41.6351 74.4894 41.0215 74.1372C40.4079 73.7849 39.5329 73.6088 38.3965 73.6088C37.6408 73.6088 36.9973 73.6897 36.4661 73.8517C35.9348 74.0107 35.53 74.2409 35.2516 74.542C34.9732 74.8403 34.834 75.1997 34.834 75.6201C34.834 76.2508 35.1451 76.7437 35.7672 77.0988C36.3866 77.4539 37.263 77.6315 38.3965 77.6315C39.1522 77.6315 39.7942 77.5519 40.3226 77.3928C40.851 77.2338 41.253 77.0051 41.5286 76.7068C41.8042 76.4056 41.9419 76.0434 41.9419 75.6201ZM42.8283 70.5214C42.8283 70.7316 42.753 70.912 42.6025 71.0626C42.4519 71.2132 42.2715 71.2884 42.0613 71.2884C41.851 71.2884 41.6706 71.2132 41.5201 71.0626C41.3695 70.912 41.2942 70.7316 41.2942 70.5214C41.2942 70.3112 41.3695 70.1308 41.5201 69.9802C41.6706 69.8296 41.851 69.7544 42.0613 69.7544C42.2005 69.7544 42.3283 69.7899 42.4448 69.8609C42.5613 69.9291 42.655 70.0214 42.726 70.1379C42.7942 70.2515 42.8283 70.3794 42.8283 70.5214ZM42.8795 65.4152C42.8795 65.9152 42.78 66.3655 42.5812 66.7661C42.3823 67.1666 42.1096 67.4877 41.763 67.7291C41.4164 67.9706 41.0215 68.1027 40.5783 68.1254V67.1027C40.9732 67.0629 41.2999 66.884 41.5584 66.5658C41.8141 66.2448 41.9419 65.8612 41.9419 65.4152C41.9419 65.0573 41.8581 64.7391 41.6905 64.4607C41.5229 64.1794 41.2928 63.9593 41.0002 63.8002C40.7047 63.6382 40.3709 63.5573 39.9988 63.5573C39.6181 63.5573 39.2786 63.6411 38.9803 63.8087C38.6792 63.9735 38.4419 64.2007 38.2687 64.4905C38.0954 64.7803 38.0073 65.1112 38.0044 65.4834C38.0016 65.7504 38.0428 66.0246 38.128 66.3058C38.2104 66.5871 38.3169 66.8186 38.4476 67.0004L38.3283 67.9891L34.0329 67.4607V62.9266H34.9704V66.5743L37.5442 66.8811V66.83C37.4022 66.651 37.2843 66.4266 37.1905 66.1567C37.0968 65.8868 37.0499 65.6056 37.0499 65.3129C37.0499 64.7789 37.1777 64.303 37.4334 63.8854C37.6863 63.4649 38.0329 63.1354 38.4732 62.8968C38.9135 62.6553 39.4164 62.5345 39.9817 62.5345C40.5385 62.5345 41.0357 62.6595 41.4732 62.9095C41.9079 63.1567 42.2516 63.4976 42.5045 63.9323C42.7545 64.3669 42.8795 64.8612 42.8795 65.4152Z" fill="black"/>
<path d="M42.8793 43.5C42.8793 44.142 42.7046 44.6889 42.3552 45.1406C42.0029 45.5923 41.493 45.9375 40.8254 46.1761C40.1549 46.4148 39.3452 46.5341 38.3964 46.5341C37.4532 46.5341 36.6478 46.4148 35.9802 46.1761C35.3097 45.9347 34.7984 45.5881 34.4461 45.1364C34.091 44.6818 33.9134 44.1364 33.9134 43.5C33.9134 42.8636 34.091 42.3196 34.4461 41.8679C34.7984 41.4134 35.3097 41.0668 35.9802 40.8281C36.6478 40.5866 37.4532 40.4659 38.3964 40.4659C39.3452 40.4659 40.1549 40.5852 40.8254 40.8239C41.493 41.0625 42.0029 41.4077 42.3552 41.8594C42.7046 42.3111 42.8793 42.858 42.8793 43.5ZM41.9418 43.5C41.9418 42.8636 41.635 42.3693 41.0214 42.017C40.4077 41.6648 39.5327 41.4886 38.3964 41.4886C37.6407 41.4886 36.9972 41.5696 36.466 41.7315C35.9347 41.8906 35.5299 42.1207 35.2515 42.4219C34.9731 42.7202 34.8339 43.0795 34.8339 43.5C34.8339 44.1307 35.145 44.6236 35.7671 44.9787C36.3864 45.3338 37.2629 45.5114 38.3964 45.5114C39.1521 45.5114 39.7941 45.4318 40.3225 45.2727C40.8509 45.1136 41.2529 44.8849 41.5285 44.5866C41.804 44.2855 41.9418 43.9233 41.9418 43.5ZM42.8282 38.4013C42.8282 38.6115 42.7529 38.7919 42.6023 38.9425C42.4518 39.093 42.2714 39.1683 42.0611 39.1683C41.8509 39.1683 41.6705 39.093 41.52 38.9425C41.3694 38.7919 41.2941 38.6115 41.2941 38.4013C41.2941 38.1911 41.3694 38.0107 41.52 37.8601C41.6705 37.7095 41.8509 37.6342 42.0611 37.6342C42.2004 37.6342 42.3282 37.6697 42.4447 37.7408C42.5611 37.8089 42.6549 37.9013 42.7259 38.0178C42.7941 38.1314 42.8282 38.2592 42.8282 38.4013ZM42.8793 33.2536C42.8736 33.6115 42.8055 33.9695 42.6748 34.3274C42.5441 34.6854 42.3239 35.0121 42.0143 35.3075C41.7018 35.603 41.2799 35.8402 40.7486 36.0192C40.2146 36.1982 39.5441 36.2876 38.7373 36.2876C37.9646 36.2876 37.2799 36.2152 36.6833 36.0703C36.0839 35.9254 35.5796 35.7152 35.1705 35.4396C34.7586 35.1641 34.4461 34.8317 34.233 34.4425C34.02 34.0504 33.9134 33.6087 33.9134 33.1172C33.9134 32.6286 34.0114 32.1939 34.2075 31.8132C34.4006 31.4297 34.6705 31.1172 35.0171 30.8757C35.3637 30.6342 35.7629 30.478 36.2146 30.407V31.4467C35.8225 31.5433 35.4972 31.7308 35.2387 32.0092C34.9802 32.2876 34.8509 32.657 34.8509 33.1172C34.8509 33.7933 35.145 34.326 35.733 34.7152C36.3211 35.1016 37.1464 35.2962 38.2089 35.299V35.2308C37.9674 35.0717 37.7614 34.8828 37.591 34.6641C37.4177 34.4425 37.2842 34.1982 37.1904 33.9311C37.0967 33.6641 37.0498 33.3814 37.0498 33.0831C37.0498 32.5831 37.1748 32.1257 37.4248 31.7109C37.6719 31.2962 38.0143 30.9638 38.4518 30.7138C38.8864 30.4638 39.385 30.3388 39.9475 30.3388C40.4873 30.3388 40.9816 30.4595 41.4305 30.701C41.8765 30.9425 42.2316 31.282 42.4958 31.7195C42.7572 32.1541 42.885 32.6655 42.8793 33.2536ZM41.9418 33.2536C41.9418 32.8956 41.8523 32.5746 41.6734 32.2905C41.4944 32.0036 41.2543 31.7777 40.9532 31.6129C40.6521 31.4453 40.3168 31.3615 39.9475 31.3615C39.5867 31.3615 39.2586 31.4425 38.9631 31.6044C38.6648 31.7635 38.4276 31.9837 38.2515 32.2649C38.0754 32.5433 37.9873 32.8615 37.9873 33.2195C37.9873 33.4893 38.0413 33.7408 38.1492 33.9737C38.2543 34.2067 38.3992 34.4112 38.5839 34.5874C38.7685 34.7607 38.9802 34.897 39.2188 34.9964C39.4546 35.0959 39.7032 35.1456 39.9646 35.1456C40.3111 35.1456 40.635 35.0646 40.9361 34.9027C41.2373 34.7379 41.4802 34.5135 41.6648 34.2294C41.8495 33.9425 41.9418 33.6172 41.9418 33.2536Z" fill="black"/>
<path d="M60 206.6H366.8V15.7998H60V206.6Z" stroke="black" stroke-width="0.75" stroke-miterlimit="10" stroke-linecap="round" stroke-linejoin="round"/>
<path d="M171.8 261.28H169.107V252.553H171.919C172.766 252.553 173.49 252.728 174.092 253.077C174.695 253.424 175.156 253.922 175.477 254.573C175.798 255.221 175.959 255.996 175.959 256.9C175.959 257.809 175.797 258.591 175.473 259.248C175.149 259.901 174.678 260.404 174.058 260.756C173.439 261.106 172.686 261.28 171.8 261.28ZM170.163 260.343H171.732C172.453 260.343 173.051 260.204 173.526 259.925C174 259.647 174.354 259.25 174.587 258.736C174.82 258.222 174.936 257.61 174.936 256.9C174.936 256.195 174.821 255.589 174.591 255.08C174.361 254.569 174.017 254.177 173.56 253.904C173.102 253.628 172.533 253.491 171.851 253.491H170.163V260.343ZM180.34 261.417C179.709 261.417 179.165 261.277 178.707 260.999C178.253 260.718 177.902 260.326 177.655 259.823C177.411 259.317 177.288 258.729 177.288 258.059C177.288 257.388 177.411 256.797 177.655 256.286C177.902 255.772 178.246 255.371 178.686 255.084C179.129 254.794 179.646 254.65 180.237 254.65C180.578 254.65 180.915 254.706 181.247 254.82C181.58 254.934 181.882 255.118 182.155 255.374C182.428 255.627 182.645 255.962 182.807 256.38C182.969 256.797 183.05 257.312 183.05 257.922V258.348H178.004V257.479H182.027C182.027 257.11 181.953 256.78 181.805 256.491C181.661 256.201 181.453 255.972 181.183 255.804C180.916 255.637 180.601 255.553 180.237 255.553C179.837 255.553 179.49 255.652 179.198 255.851C178.908 256.047 178.685 256.303 178.528 256.618C178.372 256.934 178.294 257.272 178.294 257.633V258.212C178.294 258.706 178.379 259.125 178.55 259.469C178.723 259.81 178.963 260.07 179.27 260.249C179.577 260.425 179.933 260.513 180.34 260.513C180.604 260.513 180.842 260.476 181.055 260.402C181.271 260.326 181.457 260.212 181.614 260.062C181.77 259.908 181.891 259.718 181.976 259.491L182.948 259.763C182.845 260.093 182.673 260.383 182.432 260.633C182.19 260.88 181.892 261.073 181.537 261.212C181.182 261.348 180.783 261.417 180.34 261.417ZM187.222 263.871C186.736 263.871 186.318 263.809 185.969 263.684C185.619 263.562 185.328 263.4 185.095 263.198C184.865 262.999 184.682 262.786 184.546 262.559L185.347 261.996C185.438 262.116 185.553 262.252 185.692 262.405C185.831 262.562 186.021 262.696 186.263 262.81C186.507 262.927 186.827 262.985 187.222 262.985C187.75 262.985 188.186 262.857 188.53 262.601C188.874 262.346 189.046 261.945 189.046 261.4V260.07H188.96C188.886 260.189 188.781 260.337 188.645 260.513C188.511 260.687 188.318 260.841 188.065 260.978C187.815 261.111 187.477 261.178 187.051 261.178C186.523 261.178 186.048 261.053 185.628 260.803C185.21 260.553 184.879 260.189 184.635 259.712C184.394 259.235 184.273 258.655 184.273 257.973C184.273 257.303 184.391 256.719 184.627 256.222C184.862 255.722 185.19 255.336 185.611 255.063C186.031 254.787 186.517 254.65 187.068 254.65C187.494 254.65 187.832 254.721 188.082 254.863C188.335 255.002 188.528 255.161 188.662 255.34C188.798 255.516 188.903 255.661 188.977 255.775H189.08V254.735H190.051V261.468C190.051 262.03 189.923 262.488 189.668 262.84C189.415 263.195 189.074 263.455 188.645 263.62C188.219 263.787 187.744 263.871 187.222 263.871ZM187.188 260.275C187.591 260.275 187.932 260.182 188.21 259.998C188.489 259.813 188.7 259.547 188.845 259.201C188.99 258.854 189.063 258.439 189.063 257.956C189.063 257.485 188.992 257.069 188.85 256.708C188.707 256.347 188.497 256.064 188.219 255.86C187.94 255.655 187.597 255.553 187.188 255.553C186.761 255.553 186.406 255.661 186.122 255.877C185.841 256.093 185.629 256.383 185.487 256.746C185.348 257.11 185.278 257.513 185.278 257.956C185.278 258.411 185.35 258.813 185.492 259.162C185.636 259.509 185.85 259.782 186.131 259.981C186.415 260.177 186.767 260.275 187.188 260.275ZM191.892 261.28V254.735H192.864V255.723H192.932C193.051 255.4 193.267 255.137 193.58 254.935C193.892 254.733 194.244 254.633 194.636 254.633C194.71 254.633 194.803 254.634 194.913 254.637C195.024 254.64 195.108 254.644 195.165 254.65V255.672C195.131 255.664 195.053 255.651 194.93 255.634C194.811 255.614 194.685 255.604 194.551 255.604C194.233 255.604 193.949 255.671 193.699 255.804C193.452 255.935 193.256 256.117 193.111 256.35C192.969 256.58 192.898 256.843 192.898 257.138V261.28H191.892ZM198.902 261.417C198.271 261.417 197.727 261.277 197.27 260.999C196.815 260.718 196.465 260.326 196.217 259.823C195.973 259.317 195.851 258.729 195.851 258.059C195.851 257.388 195.973 256.797 196.217 256.286C196.465 255.772 196.808 255.371 197.249 255.084C197.692 254.794 198.209 254.65 198.8 254.65C199.141 254.65 199.477 254.706 199.81 254.82C200.142 254.934 200.445 255.118 200.717 255.374C200.99 255.627 201.207 255.962 201.369 256.38C201.531 256.797 201.612 257.312 201.612 257.922V258.348H196.567V257.479H200.59C200.59 257.11 200.516 256.78 200.368 256.491C200.223 256.201 200.016 255.972 199.746 255.804C199.479 255.637 199.163 255.553 198.8 255.553C198.399 255.553 198.053 255.652 197.76 255.851C197.47 256.047 197.247 256.303 197.091 256.618C196.935 256.934 196.857 257.272 196.857 257.633V258.212C196.857 258.706 196.942 259.125 197.112 259.469C197.286 259.81 197.526 260.07 197.832 260.249C198.139 260.425 198.496 260.513 198.902 260.513C199.166 260.513 199.405 260.476 199.618 260.402C199.834 260.326 200.02 260.212 200.176 260.062C200.332 259.908 200.453 259.718 200.538 259.491L201.51 259.763C201.408 260.093 201.236 260.383 200.994 260.633C200.753 260.88 200.455 261.073 200.1 261.212C199.744 261.348 199.345 261.417 198.902 261.417ZM205.886 261.417C205.256 261.417 204.712 261.277 204.254 260.999C203.8 260.718 203.449 260.326 203.202 259.823C202.957 259.317 202.835 258.729 202.835 258.059C202.835 257.388 202.957 256.797 203.202 256.286C203.449 255.772 203.793 255.371 204.233 255.084C204.676 254.794 205.193 254.65 205.784 254.65C206.125 254.65 206.462 254.706 206.794 254.82C207.127 254.934 207.429 255.118 207.702 255.374C207.975 255.627 208.192 255.962 208.354 256.38C208.516 256.797 208.597 257.312 208.597 257.922V258.348H203.551V257.479H207.574C207.574 257.11 207.5 256.78 207.352 256.491C207.207 256.201 207 255.972 206.73 255.804C206.463 255.637 206.148 255.553 205.784 255.553C205.384 255.553 205.037 255.652 204.744 255.851C204.455 256.047 204.232 256.303 204.075 256.618C203.919 256.934 203.841 257.272 203.841 257.633V258.212C203.841 258.706 203.926 259.125 204.097 259.469C204.27 259.81 204.51 260.07 204.817 260.249C205.124 260.425 205.48 260.513 205.886 260.513C206.151 260.513 206.389 260.476 206.602 260.402C206.818 260.326 207.004 260.212 207.161 260.062C207.317 259.908 207.438 259.718 207.523 259.491L208.494 259.763C208.392 260.093 208.22 260.383 207.979 260.633C207.737 260.88 207.439 261.073 207.084 261.212C206.729 261.348 206.33 261.417 205.886 261.417ZM216.161 261.417C215.57 261.417 215.051 261.276 214.605 260.995C214.162 260.714 213.815 260.32 213.565 259.814C213.318 259.309 213.195 258.718 213.195 258.042C213.195 257.36 213.318 256.765 213.565 256.256C213.815 255.748 214.162 255.353 214.605 255.071C215.051 254.79 215.57 254.65 216.161 254.65C216.752 254.65 217.269 254.79 217.712 255.071C218.158 255.353 218.504 255.748 218.752 256.256C219.002 256.765 219.127 257.36 219.127 258.042C219.127 258.718 219.002 259.309 218.752 259.814C218.504 260.32 218.158 260.714 217.712 260.995C217.269 261.276 216.752 261.417 216.161 261.417ZM216.161 260.513C216.609 260.513 216.979 260.398 217.269 260.168C217.558 259.938 217.773 259.635 217.912 259.26C218.051 258.885 218.121 258.479 218.121 258.042C218.121 257.604 218.051 257.196 217.912 256.819C217.773 256.441 217.558 256.135 217.269 255.902C216.979 255.669 216.609 255.553 216.161 255.553C215.712 255.553 215.342 255.669 215.053 255.902C214.763 256.135 214.548 256.441 214.409 256.819C214.27 257.196 214.2 257.604 214.2 258.042C214.2 258.479 214.27 258.885 214.409 259.26C214.548 259.635 214.763 259.938 215.053 260.168C215.342 260.398 215.712 260.513 216.161 260.513ZM223.576 254.735V255.587H220.048V254.735H223.576ZM221.105 261.28V253.831C221.105 253.456 221.193 253.144 221.369 252.894C221.545 252.644 221.774 252.456 222.055 252.331C222.336 252.206 222.633 252.144 222.946 252.144C223.193 252.144 223.395 252.164 223.551 252.204C223.707 252.243 223.824 252.28 223.9 252.314L223.611 253.184C223.559 253.167 223.488 253.145 223.397 253.12C223.309 253.094 223.193 253.081 223.048 253.081C222.716 253.081 222.476 253.165 222.328 253.333C222.183 253.5 222.111 253.746 222.111 254.07V261.28H221.105ZM231.02 261.417C230.406 261.417 229.878 261.272 229.435 260.982C228.992 260.692 228.651 260.293 228.412 259.785C228.173 259.276 228.054 258.695 228.054 258.042C228.054 257.377 228.176 256.79 228.421 256.282C228.668 255.77 229.011 255.371 229.452 255.084C229.895 254.794 230.412 254.65 231.003 254.65C231.463 254.65 231.878 254.735 232.247 254.905C232.617 255.076 232.919 255.314 233.155 255.621C233.391 255.928 233.537 256.286 233.594 256.695H232.588C232.511 256.397 232.341 256.133 232.077 255.902C231.815 255.669 231.463 255.553 231.02 255.553C230.628 255.553 230.284 255.655 229.989 255.86C229.696 256.062 229.467 256.347 229.303 256.716C229.141 257.083 229.06 257.513 229.06 258.008C229.06 258.513 229.139 258.954 229.298 259.329C229.46 259.704 229.688 259.995 229.98 260.202C230.276 260.41 230.622 260.513 231.02 260.513C231.281 260.513 231.519 260.468 231.732 260.377C231.945 260.286 232.125 260.155 232.273 259.985C232.421 259.814 232.526 259.61 232.588 259.371H233.594C233.537 259.758 233.396 260.106 233.172 260.415C232.95 260.722 232.656 260.966 232.29 261.148C231.926 261.327 231.503 261.417 231.02 261.417ZM236.07 257.343V261.28H235.064V252.553H236.07V255.758H236.155C236.308 255.419 236.538 255.151 236.845 254.952C237.155 254.75 237.567 254.65 238.081 254.65C238.527 254.65 238.918 254.739 239.253 254.918C239.588 255.094 239.848 255.366 240.033 255.732C240.22 256.096 240.314 256.559 240.314 257.121V261.28H239.308V257.189C239.308 256.669 239.173 256.267 238.903 255.983C238.636 255.696 238.266 255.553 237.791 255.553C237.462 255.553 237.166 255.623 236.905 255.762C236.646 255.901 236.442 256.104 236.291 256.371C236.144 256.638 236.07 256.962 236.07 257.343ZM244.813 261.417C244.222 261.417 243.704 261.276 243.258 260.995C242.814 260.714 242.468 260.32 242.218 259.814C241.971 259.309 241.847 258.718 241.847 258.042C241.847 257.36 241.971 256.765 242.218 256.256C242.468 255.748 242.814 255.353 243.258 255.071C243.704 254.79 244.222 254.65 244.813 254.65C245.404 254.65 245.921 254.79 246.364 255.071C246.81 255.353 247.157 255.748 247.404 256.256C247.654 256.765 247.779 257.36 247.779 258.042C247.779 258.718 247.654 259.309 247.404 259.814C247.157 260.32 246.81 260.714 246.364 260.995C245.921 261.276 245.404 261.417 244.813 261.417ZM244.813 260.513C245.262 260.513 245.631 260.398 245.921 260.168C246.211 259.938 246.425 259.635 246.564 259.26C246.704 258.885 246.773 258.479 246.773 258.042C246.773 257.604 246.704 257.196 246.564 256.819C246.425 256.441 246.211 256.135 245.921 255.902C245.631 255.669 245.262 255.553 244.813 255.553C244.364 255.553 243.995 255.669 243.705 255.902C243.415 256.135 243.201 256.441 243.062 256.819C242.922 257.196 242.853 257.604 242.853 258.042C242.853 258.479 242.922 258.885 243.062 259.26C243.201 259.635 243.415 259.938 243.705 260.168C243.995 260.398 244.364 260.513 244.813 260.513ZM249.314 261.28V254.735H250.32V261.28H249.314ZM249.825 253.644C249.629 253.644 249.46 253.577 249.318 253.444C249.179 253.31 249.109 253.15 249.109 252.962C249.109 252.775 249.179 252.614 249.318 252.481C249.46 252.347 249.629 252.28 249.825 252.28C250.021 252.28 250.189 252.347 250.328 252.481C250.47 252.614 250.541 252.775 250.541 252.962C250.541 253.15 250.47 253.31 250.328 253.444C250.189 253.577 250.021 253.644 249.825 253.644ZM254.821 261.417C254.207 261.417 253.679 261.272 253.236 260.982C252.792 260.692 252.451 260.293 252.213 259.785C251.974 259.276 251.855 258.695 251.855 258.042C251.855 257.377 251.977 256.79 252.221 256.282C252.468 255.77 252.812 255.371 253.253 255.084C253.696 254.794 254.213 254.65 254.804 254.65C255.264 254.65 255.679 254.735 256.048 254.905C256.417 255.076 256.72 255.314 256.956 255.621C257.191 255.928 257.338 256.286 257.395 256.695H256.389C256.312 256.397 256.142 256.133 255.878 255.902C255.616 255.669 255.264 255.553 254.821 255.553C254.429 255.553 254.085 255.655 253.79 255.86C253.497 256.062 253.268 256.347 253.103 256.716C252.941 257.083 252.861 257.513 252.861 258.008C252.861 258.513 252.94 258.954 253.099 259.329C253.261 259.704 253.488 259.995 253.781 260.202C254.076 260.41 254.423 260.513 254.821 260.513C255.082 260.513 255.319 260.468 255.532 260.377C255.745 260.286 255.926 260.155 256.074 259.985C256.221 259.814 256.326 259.61 256.389 259.371H257.395C257.338 259.758 257.197 260.106 256.973 260.415C256.751 260.722 256.457 260.966 256.091 261.148C255.727 261.327 255.304 261.417 254.821 261.417ZM261.609 261.417C260.978 261.417 260.434 261.277 259.977 260.999C259.522 260.718 259.172 260.326 258.924 259.823C258.68 259.317 258.558 258.729 258.558 258.059C258.558 257.388 258.68 256.797 258.924 256.286C259.172 255.772 259.515 255.371 259.956 255.084C260.399 254.794 260.916 254.65 261.507 254.65C261.848 254.65 262.184 254.706 262.517 254.82C262.849 254.934 263.152 255.118 263.424 255.374C263.697 255.627 263.915 255.962 264.076 256.38C264.238 256.797 264.319 257.312 264.319 257.922V258.348H259.274V257.479H263.297C263.297 257.11 263.223 256.78 263.075 256.491C262.93 256.201 262.723 255.972 262.453 255.804C262.186 255.637 261.87 255.553 261.507 255.553C261.106 255.553 260.76 255.652 260.467 255.851C260.177 256.047 259.954 256.303 259.798 256.618C259.642 256.934 259.564 257.272 259.564 257.633V258.212C259.564 258.706 259.649 259.125 259.819 259.469C259.993 259.81 260.233 260.07 260.54 260.249C260.846 260.425 261.203 260.513 261.609 260.513C261.873 260.513 262.112 260.476 262.325 260.402C262.541 260.326 262.727 260.212 262.883 260.062C263.04 259.908 263.16 259.718 263.245 259.491L264.217 259.763C264.115 260.093 263.943 260.383 263.701 260.633C263.46 260.88 263.162 261.073 262.807 261.212C262.451 261.348 262.052 261.417 261.609 261.417Z" fill="black"/>
<path d="M17.9602 159.603H9.23293V156.654C9.23293 155.973 9.34941 155.413 9.58236 154.975C9.81248 154.538 10.1292 154.214 10.5326 154.004C10.9361 153.794 11.3949 153.689 11.9091 153.689C12.4233 153.689 12.8792 153.794 13.277 154.004C13.6747 154.214 13.9872 154.537 14.2145 154.971C14.4389 155.406 14.5511 155.961 14.5511 156.637V159.024H13.5966V156.672C13.5966 156.206 13.5284 155.831 13.392 155.547C13.2557 155.26 13.0625 155.052 12.8125 154.924C12.5596 154.794 12.2585 154.728 11.9091 154.728C11.5596 154.728 11.2542 154.794 10.9929 154.924C10.7315 155.055 10.5298 155.264 10.3878 155.551C10.2429 155.838 10.1704 156.217 10.1704 156.689V158.547H17.9602V159.603ZM14.0398 155.495L17.9602 153.348V154.575L14.0398 156.689V155.495ZM18.0966 149.39C18.0966 150.021 17.9574 150.565 17.679 151.022C17.3977 151.477 17.0057 151.827 16.5028 152.075C15.9971 152.319 15.4091 152.441 14.7386 152.441C14.0682 152.441 13.4773 152.319 12.9659 152.075C12.4517 151.827 12.0511 151.484 11.7642 151.043C11.4744 150.6 11.3295 150.083 11.3295 149.492C11.3295 149.151 11.3863 148.815 11.5 148.482C11.6136 148.15 11.7983 147.847 12.054 147.575C12.3068 147.302 12.642 147.085 13.0596 146.923C13.4773 146.761 13.9915 146.68 14.6023 146.68H15.0284V151.725H14.1591V147.702C13.7898 147.702 13.4602 147.776 13.1704 147.924C12.8807 148.069 12.652 148.276 12.4844 148.546C12.3167 148.813 12.2329 149.129 12.2329 149.492C12.2329 149.893 12.3324 150.239 12.5312 150.532C12.7273 150.822 12.9829 151.045 13.2983 151.201C13.6136 151.357 13.9517 151.435 14.3125 151.435H14.892C15.3863 151.435 15.8054 151.35 16.1491 151.18C16.49 151.006 16.75 150.766 16.929 150.46C17.1051 150.153 17.1932 149.796 17.1932 149.39C17.1932 149.126 17.1562 148.887 17.0824 148.674C17.0057 148.458 16.892 148.272 16.7415 148.116C16.588 147.96 16.3977 147.839 16.1704 147.754L16.4432 146.782C16.7727 146.884 17.0625 147.056 17.3125 147.298C17.5596 147.539 17.7528 147.837 17.892 148.192C18.0284 148.548 18.0966 148.947 18.0966 149.39ZM18.1136 143.224C18.1136 143.638 18.0355 144.015 17.8792 144.353C17.7201 144.691 17.4915 144.96 17.1932 145.158C16.892 145.357 16.5284 145.457 16.1023 145.457C15.7273 145.457 15.4233 145.383 15.1903 145.235C14.9545 145.087 14.7699 144.89 14.6363 144.643C14.5028 144.396 14.4034 144.123 14.338 143.825C14.2699 143.523 14.2159 143.221 14.1761 142.917C14.125 142.519 14.0866 142.197 14.0611 141.95C14.0326 141.7 13.9858 141.518 13.9204 141.404C13.8551 141.288 13.7415 141.229 13.5795 141.229H13.5454C13.125 141.229 12.7983 141.344 12.5653 141.575C12.3324 141.802 12.2159 142.147 12.2159 142.61C12.2159 143.09 12.321 143.467 12.5312 143.739C12.7415 144.012 12.9659 144.204 13.2045 144.315L12.8636 145.269C12.4659 145.099 12.1562 144.871 11.9346 144.587C11.7102 144.3 11.554 143.988 11.4659 143.65C11.375 143.309 11.3295 142.974 11.3295 142.644C11.3295 142.434 11.3551 142.192 11.4062 141.92C11.4545 141.644 11.5554 141.379 11.7088 141.123C11.8622 140.864 12.0937 140.65 12.4034 140.479C12.713 140.309 13.1278 140.224 13.6477 140.224H17.9602V141.229H17.0738V141.281C17.2159 141.349 17.3679 141.462 17.5298 141.621C17.6917 141.781 17.8295 141.992 17.9432 142.256C18.0568 142.521 18.1136 142.843 18.1136 143.224ZM17.2102 143.07C17.2102 142.673 17.1321 142.337 16.9758 142.065C16.8196 141.789 16.6179 141.582 16.3707 141.442C16.1236 141.3 15.8636 141.229 15.5909 141.229H14.6704C14.7216 141.272 14.7684 141.366 14.8111 141.511C14.8508 141.653 14.8863 141.817 14.9176 142.005C14.946 142.19 14.9716 142.37 14.9943 142.546C15.0142 142.719 15.0312 142.86 15.0454 142.968C15.0795 143.229 15.1349 143.474 15.2116 143.701C15.2855 143.925 15.3977 144.107 15.5483 144.246C15.696 144.383 15.8977 144.451 16.1534 144.451C16.5028 144.451 16.767 144.322 16.946 144.063C17.1221 143.802 17.2102 143.471 17.2102 143.07ZM18.0966 135.729C18.0966 136.343 17.9517 136.871 17.6619 137.314C17.3721 137.757 16.973 138.098 16.4645 138.337C15.9559 138.576 15.375 138.695 14.7216 138.695C14.0568 138.695 13.4701 138.573 12.9616 138.328C12.4503 138.081 12.0511 137.738 11.7642 137.297C11.4744 136.854 11.3295 136.337 11.3295 135.746C11.3295 135.286 11.4148 134.871 11.5852 134.502C11.7557 134.132 11.9943 133.83 12.3011 133.594C12.6079 133.358 12.9659 133.212 13.375 133.155V134.161C13.0767 134.238 12.8125 134.408 12.5824 134.672C12.3494 134.934 12.2329 135.286 12.2329 135.729C12.2329 136.121 12.3352 136.465 12.5398 136.76C12.7415 137.053 13.027 137.282 13.3963 137.446C13.7628 137.608 14.1932 137.689 14.6875 137.689C15.1932 137.689 15.6335 137.61 16.0085 137.451C16.3835 137.289 16.6747 137.061 16.8821 136.769C17.0895 136.473 17.1932 136.127 17.1932 135.729C17.1932 135.468 17.1477 135.23 17.0568 135.017C16.9659 134.804 16.8352 134.624 16.6648 134.476C16.4943 134.328 16.2898 134.223 16.0511 134.161V133.155C16.4375 133.212 16.7855 133.353 17.0951 133.577C17.402 133.799 17.6463 134.093 17.8281 134.459C18.0071 134.823 18.0966 135.246 18.0966 135.729ZM11.4148 128.838H12.267V132.23H11.4148V128.838ZM9.84657 131.242V130.236H16.0852C16.3693 130.236 16.5824 130.195 16.7244 130.113C16.8636 130.027 16.9574 129.919 17.0057 129.789C17.0511 129.655 17.0738 129.515 17.0738 129.367C17.0738 129.256 17.0682 129.165 17.0568 129.094C17.0426 129.023 17.0312 128.966 17.0227 128.924L17.9261 128.719C17.9517 128.787 17.9773 128.882 18.0028 129.005C18.0312 129.127 18.0454 129.282 18.0454 129.469C18.0454 129.753 17.9844 130.032 17.8622 130.304C17.74 130.574 17.554 130.799 17.304 130.978C17.054 131.154 16.7386 131.242 16.3579 131.242H9.84657ZM17.9602 127.326H11.4148V126.32H17.9602V127.326ZM10.3238 126.814C10.3238 127.01 10.2571 127.179 10.1236 127.321C9.99003 127.461 9.82952 127.53 9.64202 127.53C9.45452 127.53 9.29401 127.461 9.16049 127.321C9.02697 127.179 8.96021 127.01 8.96021 126.814C8.96021 126.618 9.02697 126.451 9.16049 126.311C9.29401 126.169 9.45452 126.098 9.64202 126.098C9.82952 126.098 9.99003 126.169 10.1236 126.311C10.2571 126.451 10.3238 126.618 10.3238 126.814ZM18.0966 121.819C18.0966 122.41 17.9559 122.928 17.6747 123.374C17.3934 123.817 17 124.164 16.4943 124.414C15.9886 124.661 15.3977 124.785 14.7216 124.785C14.0398 124.785 13.4446 124.661 12.9361 124.414C12.4275 124.164 12.0326 123.817 11.7514 123.374C11.4701 122.928 11.3295 122.41 11.3295 121.819C11.3295 121.228 11.4701 120.711 11.7514 120.268C12.0326 119.822 12.4275 119.475 12.9361 119.228C13.4446 118.978 14.0398 118.853 14.7216 118.853C15.3977 118.853 15.9886 118.978 16.4943 119.228C17 119.475 17.3934 119.822 17.6747 120.268C17.9559 120.711 18.0966 121.228 18.0966 121.819ZM17.1932 121.819C17.1932 121.37 17.0781 121.001 16.848 120.711C16.6179 120.421 16.3153 120.207 15.9403 120.067C15.5653 119.928 15.1591 119.859 14.7216 119.859C14.2841 119.859 13.8764 119.928 13.4986 120.067C13.1207 120.207 12.8153 120.421 12.5824 120.711C12.3494 121.001 12.2329 121.37 12.2329 121.819C12.2329 122.268 12.3494 122.637 12.5824 122.927C12.8153 123.217 13.1207 123.431 13.4986 123.57C13.8764 123.71 14.2841 123.779 14.7216 123.779C15.1591 123.779 15.5653 123.71 15.9403 123.57C16.3153 123.431 16.6179 123.217 16.848 122.927C17.0781 122.637 17.1932 122.268 17.1932 121.819ZM14.0227 116.312H17.9602L17.9602 117.318H11.4148V116.346H12.4375V116.261C12.1051 116.108 11.838 115.875 11.6363 115.562C11.4318 115.25 11.3295 114.846 11.3295 114.352C11.3295 113.909 11.4204 113.521 11.6023 113.189C11.7812 112.856 12.054 112.598 12.4204 112.413C12.7841 112.228 13.2443 112.136 13.8011 112.136H17.9602V113.142H13.8693C13.3551 113.142 12.9545 113.275 12.6676 113.542C12.3778 113.809 12.2329 114.176 12.2329 114.642C12.2329 114.963 12.3025 115.25 12.4417 115.502C12.5809 115.752 12.7841 115.95 13.0511 116.095C13.3182 116.24 13.642 116.312 14.0227 116.312ZM10.1704 107.264H9.23293V100.719H10.1704V103.463H17.9602V104.52H10.1704V107.264ZM17.9602 99.2241H11.4148V98.2184H17.9602V99.2241ZM10.3238 98.7127C10.3238 98.9087 10.2571 99.0778 10.1236 99.2198C9.99003 99.359 9.82952 99.4286 9.64202 99.4286C9.45452 99.4286 9.29401 99.359 9.16049 99.2198C9.02697 99.0778 8.96021 98.9087 8.96021 98.7127C8.96021 98.5167 9.02697 98.3491 9.16049 98.2099C9.29401 98.0678 9.45452 97.9968 9.64202 97.9968C9.82952 97.9968 9.99003 98.0678 10.1236 98.2099C10.2571 98.3491 10.3238 98.5167 10.3238 98.7127ZM17.9602 96.3764H11.4148V95.4048H12.4375V95.3196C12.088 95.1832 11.8167 94.9631 11.6236 94.6591C11.4275 94.3551 11.3295 93.9901 11.3295 93.5639C11.3295 93.1321 11.4275 92.7727 11.6236 92.4858C11.8167 92.196 12.088 91.9702 12.4375 91.8082V91.7401C12.0994 91.5724 11.8309 91.321 11.6321 90.9858C11.4304 90.6506 11.3295 90.2486 11.3295 89.7798C11.3295 89.1946 11.5128 88.7159 11.8792 88.3438C12.2429 87.9716 12.8096 87.7855 13.5795 87.7855H17.9602L17.9602 88.7912H13.5795C13.0966 88.7912 12.7514 88.9233 12.544 89.1875C12.3366 89.4517 12.2329 89.7628 12.2329 90.1207C12.2329 90.581 12.3721 90.9375 12.6505 91.1903C12.9261 91.4432 13.2755 91.5696 13.6988 91.5696H17.9602V92.5923H13.4773C13.1051 92.5923 12.8054 92.7131 12.5781 92.9545C12.348 93.196 12.2329 93.5071 12.2329 93.8878C12.2329 94.1491 12.3025 94.3935 12.4417 94.6207C12.5809 94.8452 12.7741 95.027 13.0213 95.1662C13.2656 95.3026 13.5483 95.3707 13.8693 95.3707H17.9602V96.3764ZM18.0966 83.2024C18.0966 83.8331 17.9574 84.3771 17.679 84.8345C17.3977 85.2891 17.0057 85.6399 16.5028 85.8871C15.9971 86.1314 15.4091 86.2536 14.7386 86.2536C14.0682 86.2536 13.4773 86.1314 12.9659 85.8871C12.4517 85.6399 12.0511 85.2962 11.7642 84.8558C11.4744 84.4126 11.3295 83.8956 11.3295 83.3047C11.3295 82.9638 11.3863 82.6271 11.5 82.2947C11.6136 81.9624 11.7983 81.6598 12.054 81.3871C12.3068 81.1143 12.642 80.897 13.0596 80.7351C13.4773 80.5732 13.9915 80.4922 14.6023 80.4922H15.0284V85.5376H14.1591V81.5149C13.7898 81.5149 13.4602 81.5888 13.1704 81.7365C12.8807 81.8814 12.652 82.0888 12.4844 82.3587C12.3167 82.6257 12.2329 82.9411 12.2329 83.3047C12.2329 83.7053 12.3324 84.0518 12.5312 84.3445C12.7273 84.6342 12.9829 84.8572 13.2983 85.0135C13.6136 85.1697 13.9517 85.2479 14.3125 85.2479H14.892C15.3863 85.2479 15.8054 85.1626 16.1491 84.9922C16.49 84.8189 16.75 84.5788 16.929 84.272C17.1051 83.9652 17.1932 83.6087 17.1932 83.2024C17.1932 82.9382 17.1562 82.6996 17.0824 82.4865C17.0057 82.2706 16.892 82.0845 16.7415 81.9283C16.588 81.772 16.3977 81.6513 16.1704 81.5661L16.4432 80.5945C16.7727 80.6967 17.0625 80.8686 17.3125 81.1101C17.5596 81.3516 17.7528 81.6499 17.892 82.005C18.0284 82.3601 18.0966 82.7592 18.0966 83.2024ZM14.2784 75.2294C13.2045 75.2294 12.2173 75.0902 11.3167 74.8118C10.4133 74.5305 9.58236 74.13 8.82384 73.6101V72.7237C9.10509 72.9283 9.45168 73.12 9.86361 73.299C10.2727 73.4751 10.723 73.63 11.2145 73.7635C11.7031 73.897 12.2088 74.0021 12.7315 74.0788C13.2542 74.1527 13.7699 74.1896 14.2784 74.1896C14.9545 74.1896 15.6406 74.1243 16.3366 73.9936C17.0326 73.8629 17.679 73.6868 18.2755 73.4652C18.8721 73.2436 19.3579 72.9964 19.7329 72.7237V73.6101C18.9744 74.13 18.1449 74.5305 17.2443 74.8118C16.3409 75.0902 15.3523 75.2294 14.2784 75.2294ZM12.8807 66.6033L13.1363 67.5067C12.9858 67.5636 12.8395 67.6474 12.6974 67.7582C12.5525 67.8661 12.4332 68.0138 12.3395 68.2013C12.2457 68.3888 12.1988 68.6289 12.1988 68.9215C12.1988 69.3221 12.2912 69.6559 12.4758 69.9229C12.6576 70.1871 12.8892 70.3192 13.1704 70.3192C13.4204 70.3192 13.6179 70.2283 13.7628 70.0465C13.9076 69.8647 14.0284 69.5806 14.125 69.1942L14.3636 68.2227C14.5057 67.6374 14.723 67.2013 15.0156 66.9144C15.3054 66.6275 15.679 66.484 16.1363 66.484C16.5113 66.484 16.8466 66.592 17.142 66.8079C17.4375 67.021 17.6704 67.3192 17.8409 67.7028C18.0113 68.0863 18.0966 68.5323 18.0966 69.0408C18.0966 69.7085 17.9517 70.261 17.6619 70.6985C17.3721 71.136 16.9488 71.413 16.392 71.5295L16.1534 70.5749C16.5057 70.484 16.7699 70.3121 16.946 70.0593C17.1221 69.8036 17.2102 69.4698 17.2102 69.0579C17.2102 68.5891 17.1108 68.217 16.9119 67.9414C16.7102 67.663 16.4687 67.5238 16.1875 67.5238C15.9602 67.5238 15.7699 67.6033 15.6165 67.7624C15.4602 67.9215 15.3437 68.1658 15.267 68.4954L15.0113 69.5863C14.8693 70.1857 14.6491 70.6261 14.3508 70.9073C14.0497 71.1857 13.6733 71.3249 13.2216 71.3249C12.8523 71.3249 12.5255 71.2212 12.2415 71.0138C11.9574 70.8036 11.7344 70.5181 11.5724 70.1573C11.4105 69.7937 11.3295 69.3817 11.3295 68.9215C11.3295 68.2738 11.4716 67.7653 11.7557 67.396C12.0398 67.0238 12.4148 66.7596 12.8807 66.6033ZM14.2784 62.8224C15.3523 62.8224 16.3409 62.9631 17.2443 63.2443C18.1449 63.5227 18.9744 63.9219 19.7329 64.4418V65.3281C19.4517 65.1236 19.1051 64.9332 18.6932 64.7571C18.2841 64.5781 17.8352 64.4219 17.3466 64.2884C16.8551 64.1548 16.348 64.0511 15.8253 63.9773C15.2997 63.9006 14.7841 63.8622 14.2784 63.8622C13.6023 63.8622 12.9162 63.9276 12.2201 64.0582C11.5241 64.1889 10.8778 64.3651 10.2812 64.5866C9.68464 64.8082 9.19884 65.0554 8.82384 65.3281V64.4418C9.58236 63.9219 10.4133 63.5227 11.3167 63.2443C12.2173 62.9631 13.2045 62.8224 14.2784 62.8224Z" fill="black"/>
<path d="M71.4 206.6H355.4" stroke="black" stroke-width="0.75" stroke-miterlimit="10" stroke-linecap="round" stroke-linejoin="round"/>
<path d="M71.4 206.6V213.8" stroke="black" stroke-width="0.75" stroke-miterlimit="10" stroke-linecap="round" stroke-linejoin="round"/>
<path d="M103 206.6V213.8" stroke="black" stroke-width="0.75" stroke-miterlimit="10" stroke-linecap="round" stroke-linejoin="round"/>
<path d="M134.5 206.6V213.8" stroke="black" stroke-width="0.75" stroke-miterlimit="10" stroke-linecap="round" stroke-linejoin="round"/>
<path d="M166.1 206.6V213.8" stroke="black" stroke-width="0.75" stroke-miterlimit="10" stroke-linecap="round" stroke-linejoin="round"/>
<path d="M197.6 206.6V213.8" stroke="black" stroke-width="0.75" stroke-miterlimit="10" stroke-linecap="round" stroke-linejoin="round"/>
<path d="M229.2 206.6V213.8" stroke="black" stroke-width="0.75" stroke-miterlimit="10" stroke-linecap="round" stroke-linejoin="round"/>
<path d="M260.7 206.6V213.8" stroke="black" stroke-width="0.75" stroke-miterlimit="10" stroke-linecap="round" stroke-linejoin="round"/>
<path d="M292.3 206.6V213.8" stroke="black" stroke-width="0.75" stroke-miterlimit="10" stroke-linecap="round" stroke-linejoin="round"/>
<path d="M323.8 206.6V213.8" stroke="black" stroke-width="0.75" stroke-miterlimit="10" stroke-linecap="round" stroke-linejoin="round"/>
<path d="M355.4 206.6V213.8" stroke="black" stroke-width="0.75" stroke-miterlimit="10" stroke-linecap="round" stroke-linejoin="round"/>
<path d="M72.0316 223.753V232.48H70.9748V224.861H70.9237L68.793 226.276V225.202L70.9748 223.753H72.0316Z" fill="black"/>
<path d="M100.524 232.48V231.713L103.404 228.56C103.742 228.191 104.021 227.87 104.239 227.597C104.458 227.321 104.62 227.063 104.725 226.821C104.833 226.577 104.887 226.321 104.887 226.054C104.887 225.748 104.813 225.482 104.666 225.257C104.521 225.033 104.322 224.86 104.069 224.738C103.816 224.615 103.532 224.554 103.217 224.554C102.881 224.554 102.589 224.624 102.339 224.763C102.092 224.9 101.9 225.091 101.764 225.338C101.63 225.586 101.563 225.875 101.563 226.208H100.558C100.558 225.696 100.676 225.248 100.911 224.861C101.147 224.475 101.468 224.174 101.874 223.958C102.283 223.742 102.742 223.634 103.251 223.634C103.762 223.634 104.215 223.742 104.61 223.958C105.005 224.174 105.315 224.465 105.539 224.831C105.764 225.198 105.876 225.605 105.876 226.054C105.876 226.375 105.818 226.689 105.701 226.996C105.587 227.3 105.389 227.64 105.104 228.015C104.823 228.387 104.433 228.841 103.933 229.378L101.972 231.475V231.543H106.029V232.48H100.524Z" fill="black"/>
<path d="M135.032 232.6C134.47 232.6 133.969 232.503 133.528 232.31C133.091 232.117 132.743 231.848 132.484 231.505C132.228 231.158 132.089 230.756 132.067 230.299H133.14C133.163 230.58 133.26 230.823 133.43 231.027C133.601 231.229 133.824 231.385 134.099 231.496C134.375 231.607 134.68 231.662 135.015 231.662C135.39 231.662 135.723 231.597 136.013 231.466C136.302 231.336 136.53 231.154 136.694 230.921C136.859 230.688 136.942 230.418 136.942 230.111C136.942 229.79 136.862 229.507 136.703 229.263C136.544 229.016 136.311 228.823 136.004 228.684C135.697 228.544 135.322 228.475 134.879 228.475H134.18V227.537H134.879C135.226 227.537 135.53 227.475 135.791 227.35C136.055 227.225 136.261 227.049 136.409 226.821C136.559 226.594 136.635 226.327 136.635 226.02C136.635 225.725 136.569 225.468 136.439 225.249C136.308 225.03 136.123 224.86 135.885 224.738C135.649 224.615 135.371 224.554 135.049 224.554C134.748 224.554 134.464 224.61 134.197 224.721C133.933 224.828 133.717 224.986 133.549 225.194C133.382 225.398 133.291 225.645 133.277 225.935H132.254C132.271 225.478 132.409 225.077 132.667 224.733C132.926 224.387 133.264 224.117 133.682 223.924C134.102 223.73 134.564 223.634 135.067 223.634C135.606 223.634 136.069 223.743 136.456 223.962C136.842 224.178 137.139 224.463 137.346 224.819C137.554 225.174 137.657 225.557 137.657 225.969C137.657 226.461 137.528 226.88 137.27 227.226C137.014 227.573 136.666 227.813 136.226 227.946V228.015C136.777 228.105 137.207 228.34 137.517 228.718C137.826 229.093 137.981 229.557 137.981 230.111C137.981 230.586 137.852 231.012 137.594 231.39C137.338 231.765 136.988 232.06 136.545 232.276C136.102 232.492 135.598 232.6 135.032 232.6Z" fill="black"/>
<path d="M163.429 230.691V229.821L167.264 223.753H167.895V225.1H167.469L164.571 229.685V229.753H169.736V230.691H163.429ZM167.537 232.48V230.426V230.022V223.753H168.542V232.48H167.537Z" fill="black"/>
<path d="M197.921 232.6C197.421 232.6 196.97 232.5 196.57 232.301C196.169 232.103 195.848 231.83 195.607 231.483C195.365 231.137 195.233 230.742 195.21 230.299H196.233C196.273 230.694 196.452 231.02 196.77 231.279C197.091 231.534 197.475 231.662 197.921 231.662C198.279 231.662 198.597 231.578 198.875 231.411C199.157 231.243 199.377 231.013 199.536 230.721C199.698 230.425 199.779 230.091 199.779 229.719C199.779 229.338 199.695 228.999 199.527 228.701C199.362 228.4 199.135 228.162 198.845 227.989C198.556 227.816 198.225 227.728 197.853 227.725C197.585 227.722 197.311 227.763 197.03 227.848C196.749 227.931 196.517 228.037 196.335 228.168L195.347 228.049L195.875 223.753H200.409V224.691H196.762L196.455 227.265H196.506C196.685 227.123 196.909 227.005 197.179 226.911C197.449 226.817 197.73 226.77 198.023 226.77C198.557 226.77 199.033 226.898 199.451 227.154C199.871 227.407 200.201 227.753 200.439 228.194C200.681 228.634 200.801 229.137 200.801 229.702C200.801 230.259 200.676 230.756 200.426 231.194C200.179 231.628 199.838 231.972 199.404 232.225C198.969 232.475 198.475 232.6 197.921 232.6Z" fill="black"/>
<path d="M229.641 232.6C229.283 232.594 228.925 232.526 228.567 232.395C228.209 232.265 227.882 232.044 227.587 231.735C227.292 231.422 227.054 231 226.875 230.469C226.696 229.935 226.607 229.265 226.607 228.458C226.607 227.685 226.679 227 226.824 226.404C226.969 225.804 227.179 225.3 227.455 224.891C227.73 224.479 228.063 224.167 228.452 223.953C228.844 223.74 229.286 223.634 229.777 223.634C230.266 223.634 230.701 223.732 231.081 223.928C231.465 224.121 231.777 224.391 232.019 224.738C232.26 225.084 232.417 225.483 232.488 225.935H231.448C231.351 225.543 231.164 225.218 230.885 224.959C230.607 224.701 230.238 224.571 229.777 224.571C229.101 224.571 228.569 224.865 228.179 225.453C227.793 226.042 227.598 226.867 227.596 227.929H227.664C227.823 227.688 228.012 227.482 228.23 227.311C228.452 227.138 228.696 227.005 228.963 226.911C229.23 226.817 229.513 226.77 229.811 226.77C230.311 226.77 230.769 226.895 231.184 227.145C231.598 227.392 231.931 227.735 232.181 228.172C232.431 228.607 232.556 229.105 232.556 229.668C232.556 230.208 232.435 230.702 232.194 231.151C231.952 231.597 231.613 231.952 231.175 232.216C230.74 232.478 230.229 232.605 229.641 232.6ZM229.641 231.662C229.999 231.662 230.32 231.573 230.604 231.394C230.891 231.215 231.117 230.975 231.282 230.674C231.449 230.373 231.533 230.037 231.533 229.668C231.533 229.307 231.452 228.979 231.29 228.684C231.131 228.385 230.911 228.148 230.63 227.972C230.351 227.796 230.033 227.708 229.675 227.708C229.405 227.708 229.154 227.762 228.921 227.87C228.688 227.975 228.483 228.12 228.307 228.304C228.134 228.489 227.998 228.701 227.898 228.939C227.799 229.175 227.749 229.424 227.749 229.685C227.749 230.032 227.83 230.355 227.992 230.657C228.157 230.958 228.381 231.201 228.665 231.385C228.952 231.57 229.277 231.662 229.641 231.662Z" fill="black"/>
<path d="M258.577 232.48L262.48 224.759V224.691H257.98V223.753H263.571V224.742L259.684 232.48H258.577Z" fill="black"/>
<path d="M292.649 232.6C292.064 232.6 291.547 232.496 291.098 232.289C290.652 232.078 290.304 231.79 290.054 231.424C289.804 231.054 289.68 230.634 289.683 230.162C289.68 229.793 289.753 229.452 289.9 229.14C290.048 228.824 290.25 228.561 290.506 228.351C290.764 228.138 291.052 228.003 291.371 227.946V227.895C290.953 227.787 290.621 227.553 290.373 227.192C290.126 226.828 290.004 226.415 290.007 225.952C290.004 225.509 290.116 225.113 290.344 224.763C290.571 224.414 290.883 224.138 291.281 223.936C291.682 223.735 292.138 223.634 292.649 223.634C293.155 223.634 293.606 223.735 294.004 223.936C294.402 224.138 294.714 224.414 294.942 224.763C295.172 225.113 295.288 225.509 295.291 225.952C295.288 226.415 295.162 226.828 294.912 227.192C294.665 227.553 294.337 227.787 293.927 227.895V227.946C294.243 228.003 294.527 228.138 294.78 228.351C295.033 228.561 295.234 228.824 295.385 229.14C295.535 229.452 295.612 229.793 295.615 230.162C295.612 230.634 295.484 231.054 295.231 231.424C294.981 231.79 294.633 232.078 294.187 232.289C293.744 232.496 293.231 232.6 292.649 232.6ZM292.649 231.662C293.044 231.662 293.385 231.598 293.672 231.471C293.959 231.343 294.18 231.162 294.337 230.929C294.493 230.696 294.572 230.424 294.575 230.111C294.572 229.782 294.487 229.49 294.32 229.238C294.152 228.985 293.923 228.786 293.633 228.641C293.347 228.496 293.018 228.424 292.649 228.424C292.277 228.424 291.945 228.496 291.652 228.641C291.362 228.786 291.133 228.985 290.966 229.238C290.801 229.49 290.72 229.782 290.723 230.111C290.72 230.424 290.795 230.696 290.949 230.929C291.105 231.162 291.328 231.343 291.618 231.471C291.908 231.598 292.251 231.662 292.649 231.662ZM292.649 227.52C292.962 227.52 293.239 227.458 293.48 227.333C293.724 227.208 293.916 227.033 294.055 226.809C294.195 226.584 294.266 226.321 294.268 226.02C294.266 225.725 294.196 225.468 294.06 225.249C293.923 225.027 293.734 224.857 293.493 224.738C293.251 224.615 292.97 224.554 292.649 224.554C292.322 224.554 292.037 224.615 291.793 224.738C291.548 224.857 291.359 225.027 291.226 225.249C291.092 225.468 291.027 225.725 291.03 226.02C291.027 226.321 291.094 226.584 291.23 226.809C291.369 227.033 291.561 227.208 291.805 227.333C292.05 227.458 292.331 227.52 292.649 227.52Z" fill="black"/>
<path d="M324.192 223.634C324.55 223.637 324.907 223.705 325.265 223.838C325.623 223.972 325.95 224.194 326.246 224.503C326.541 224.81 326.778 225.229 326.957 225.76C327.136 226.292 327.226 226.958 327.226 227.759C327.226 228.534 327.152 229.223 327.004 229.826C326.859 230.425 326.649 230.931 326.373 231.343C326.101 231.755 325.768 232.067 325.376 232.28C324.987 232.493 324.547 232.6 324.055 232.6C323.567 232.6 323.131 232.503 322.747 232.31C322.366 232.114 322.054 231.843 321.809 231.496C321.568 231.147 321.413 230.742 321.345 230.282H322.385C322.479 230.682 322.665 231.013 322.943 231.275C323.224 231.533 323.595 231.662 324.055 231.662C324.729 231.662 325.26 231.368 325.649 230.78C326.041 230.192 326.237 229.361 326.237 228.287H326.169C326.01 228.526 325.821 228.732 325.602 228.905C325.383 229.078 325.14 229.212 324.873 229.306C324.606 229.4 324.322 229.446 324.021 229.446C323.521 229.446 323.062 229.323 322.645 229.076C322.23 228.826 321.898 228.483 321.648 228.049C321.4 227.611 321.277 227.111 321.277 226.549C321.277 226.015 321.396 225.526 321.635 225.083C321.876 224.637 322.214 224.282 322.649 224.017C323.086 223.753 323.601 223.625 324.192 223.634ZM324.192 224.571C323.834 224.571 323.511 224.661 323.224 224.84C322.94 225.016 322.714 225.255 322.547 225.556C322.382 225.854 322.3 226.185 322.3 226.549C322.3 226.912 322.379 227.243 322.538 227.542C322.7 227.837 322.92 228.073 323.199 228.249C323.48 228.422 323.8 228.509 324.157 228.509C324.427 228.509 324.679 228.456 324.912 228.351C325.145 228.243 325.348 228.097 325.521 227.912C325.697 227.725 325.835 227.513 325.934 227.277C326.034 227.039 326.084 226.79 326.084 226.532C326.084 226.191 326.001 225.871 325.836 225.573C325.675 225.275 325.45 225.033 325.163 224.848C324.879 224.664 324.555 224.571 324.192 224.571Z" fill="black"/>
<path d="M352.702 223.753V232.48H351.645V224.861H351.594L349.463 226.276V225.202L351.645 223.753H352.702ZM358.059 232.6C357.417 232.6 356.87 232.425 356.418 232.076C355.966 231.723 355.621 231.213 355.382 230.546C355.144 229.875 355.025 229.066 355.025 228.117C355.025 227.174 355.144 226.368 355.382 225.701C355.624 225.03 355.971 224.519 356.422 224.167C356.877 223.811 357.422 223.634 358.059 223.634C358.695 223.634 359.239 223.811 359.691 224.167C360.145 224.519 360.492 225.03 360.73 225.701C360.972 226.368 361.093 227.174 361.093 228.117C361.093 229.066 360.973 229.875 360.735 230.546C360.496 231.213 360.151 231.723 359.699 232.076C359.248 232.425 358.701 232.6 358.059 232.6ZM358.059 231.662C358.695 231.662 359.189 231.355 359.542 230.742C359.894 230.128 360.07 229.253 360.07 228.117C360.07 227.361 359.989 226.718 359.827 226.186C359.668 225.655 359.438 225.25 359.137 224.972C358.838 224.694 358.479 224.554 358.059 224.554C357.428 224.554 356.935 224.865 356.58 225.488C356.225 226.107 356.047 226.983 356.047 228.117C356.047 228.873 356.127 229.515 356.286 230.043C356.445 230.571 356.674 230.973 356.972 231.249C357.273 231.525 357.635 231.662 358.059 231.662Z" fill="black"/>
<path d="M60 199.5V38.8999" stroke="black" stroke-width="0.75" stroke-miterlimit="10" stroke-linecap="round" stroke-linejoin="round"/>
<path d="M60 199.5H52.8" stroke="black" stroke-width="0.75" stroke-miterlimit="10" stroke-linecap="round" stroke-linejoin="round"/>
<path d="M60 38.8999H52.8" stroke="black" stroke-width="0.75" stroke-miterlimit="10" stroke-linecap="round" stroke-linejoin="round"/>
<path d="M42.8795 204.08C42.8795 204.722 42.7047 205.269 42.3553 205.721C42.003 206.172 41.4931 206.518 40.8255 206.756C40.155 206.995 39.3454 207.114 38.3965 207.114C37.4533 207.114 36.6479 206.995 35.9803 206.756C35.3098 206.515 34.7985 206.168 34.4462 205.716C34.0911 205.262 33.9135 204.716 33.9135 204.08C33.9135 203.444 34.0911 202.9 34.4462 202.448C34.7985 201.993 35.3098 201.647 35.9803 201.408C36.6479 201.167 37.4533 201.046 38.3965 201.046C39.3454 201.046 40.155 201.165 40.8255 201.404C41.4931 201.643 42.003 201.988 42.3553 202.439C42.7047 202.891 42.8795 203.438 42.8795 204.08ZM41.9419 204.08C41.9419 203.444 41.6351 202.949 41.0215 202.597C40.4079 202.245 39.5329 202.069 38.3965 202.069C37.6408 202.069 36.9973 202.15 36.4661 202.312C35.9348 202.471 35.53 202.701 35.2516 203.002C34.9732 203.3 34.834 203.66 34.834 204.08C34.834 204.711 35.1451 205.204 35.7672 205.559C36.3866 205.914 37.263 206.091 38.3965 206.091C39.1522 206.091 39.7942 206.012 40.3226 205.853C40.851 205.694 41.253 205.465 41.5286 205.167C41.8042 204.866 41.9419 204.503 41.9419 204.08ZM42.8283 198.981C42.8283 199.192 42.753 199.372 42.6025 199.523C42.4519 199.673 42.2715 199.748 42.0613 199.748C41.851 199.748 41.6706 199.673 41.5201 199.523C41.3695 199.372 41.2942 199.192 41.2942 198.981C41.2942 198.771 41.3695 198.591 41.5201 198.44C41.6706 198.29 41.851 198.214 42.0613 198.214C42.2005 198.214 42.3283 198.25 42.4448 198.321C42.5613 198.389 42.655 198.481 42.726 198.598C42.7942 198.711 42.8283 198.839 42.8283 198.981ZM34.0329 194.401H42.7601V195.458H35.1408V195.509L36.5556 197.64H35.4817L34.0329 195.458V194.401Z" fill="black"/>
<path d="M42.8793 43.5C42.8793 44.142 42.7046 44.6889 42.3552 45.1406C42.0029 45.5923 41.493 45.9375 40.8254 46.1761C40.1549 46.4148 39.3452 46.5341 38.3964 46.5341C37.4532 46.5341 36.6478 46.4148 35.9802 46.1761C35.3097 45.9347 34.7984 45.5881 34.4461 45.1364C34.091 44.6818 33.9134 44.1364 33.9134 43.5C33.9134 42.8636 34.091 42.3196 34.4461 41.8679C34.7984 41.4134 35.3097 41.0668 35.9802 40.8281C36.6478 40.5866 37.4532 40.4659 38.3964 40.4659C39.3452 40.4659 40.1549 40.5852 40.8254 40.8239C41.493 41.0625 42.0029 41.4077 42.3552 41.8594C42.7046 42.3111 42.8793 42.858 42.8793 43.5ZM41.9418 43.5C41.9418 42.8636 41.635 42.3693 41.0214 42.017C40.4077 41.6648 39.5327 41.4886 38.3964 41.4886C37.6407 41.4886 36.9972 41.5696 36.466 41.7315C35.9347 41.8906 35.5299 42.1207 35.2515 42.4219C34.9731 42.7202 34.8339 43.0795 34.8339 43.5C34.8339 44.1307 35.145 44.6236 35.7671 44.9787C36.3864 45.3338 37.2629 45.5114 38.3964 45.5114C39.1521 45.5114 39.7941 45.4318 40.3225 45.2727C40.8509 45.1136 41.2529 44.8849 41.5285 44.5866C41.804 44.2855 41.9418 43.9233 41.9418 43.5ZM42.8282 38.4013C42.8282 38.6115 42.7529 38.7919 42.6023 38.9425C42.4518 39.093 42.2714 39.1683 42.0611 39.1683C41.8509 39.1683 41.6705 39.093 41.52 38.9425C41.3694 38.7919 41.2941 38.6115 41.2941 38.4013C41.2941 38.1911 41.3694 38.0107 41.52 37.8601C41.6705 37.7095 41.8509 37.6342 42.0611 37.6342C42.2004 37.6342 42.3282 37.6697 42.4447 37.7408C42.5611 37.8089 42.6549 37.9013 42.7259 38.0178C42.7941 38.1314 42.8282 38.2592 42.8282 38.4013ZM42.8793 33.2536C42.8736 33.6115 42.8055 33.9695 42.6748 34.3274C42.5441 34.6854 42.3239 35.0121 42.0143 35.3075C41.7018 35.603 41.2799 35.8402 40.7486 36.0192C40.2146 36.1982 39.5441 36.2876 38.7373 36.2876C37.9646 36.2876 37.2799 36.2152 36.6833 36.0703C36.0839 35.9254 35.5796 35.7152 35.1705 35.4396C34.7586 35.1641 34.4461 34.8317 34.233 34.4425C34.02 34.0504 33.9134 33.6087 33.9134 33.1172C33.9134 32.6286 34.0114 32.1939 34.2075 31.8132C34.4006 31.4297 34.6705 31.1172 35.0171 30.8757C35.3637 30.6342 35.7629 30.478 36.2146 30.407V31.4467C35.8225 31.5433 35.4972 31.7308 35.2387 32.0092C34.9802 32.2876 34.8509 32.657 34.8509 33.1172C34.8509 33.7933 35.145 34.326 35.733 34.7152C36.3211 35.1016 37.1464 35.2962 38.2089 35.299V35.2308C37.9674 35.0717 37.7614 34.8828 37.591 34.6641C37.4177 34.4425 37.2842 34.1982 37.1904 33.9311C37.0967 33.6641 37.0498 33.3814 37.0498 33.0831C37.0498 32.5831 37.1748 32.1257 37.4248 31.7109C37.6719 31.2962 38.0143 30.9638 38.4518 30.7138C38.8864 30.4638 39.385 30.3388 39.9475 30.3388C40.4873 30.3388 40.9816 30.4595 41.4305 30.701C41.8765 30.9425 42.2316 31.282 42.4958 31.7195C42.7572 32.1541 42.885 32.6655 42.8793 33.2536ZM41.9418 33.2536C41.9418 32.8956 41.8523 32.5746 41.6734 32.2905C41.4944 32.0036 41.2543 31.7777 40.9532 31.6129C40.6521 31.4453 40.3168 31.3615 39.9475 31.3615C39.5867 31.3615 39.2586 31.4425 38.9631 31.6044C38.6648 31.7635 38.4276 31.9837 38.2515 32.2649C38.0754 32.5433 37.9873 32.8615 37.9873 33.2195C37.9873 33.4893 38.0413 33.7408 38.1492 33.9737C38.2543 34.2067 38.3992 34.4112 38.5839 34.5874C38.7685 34.7607 38.9802 34.897 39.2188 34.9964C39.4546 35.0959 39.7032 35.1456 39.9646 35.1456C40.3111 35.1456 40.635 35.0646 40.9361 34.9027C41.2373 34.7379 41.4802 34.5135 41.6648 34.2294C41.8495 33.9425 41.9418 33.6172 41.9418 33.2536Z" fill="black"/>
<path d="M71.3999 186.8L74.2999 182.1L77.0999 177.7L79.9999 173.7L82.8999 170L85.6999 166.5L88.5999 163.3L91.4999 160.2L94.2999 157.2L97.1999 154.5L100.1 151.9L103 149.3L105.8 146.9L108.7 144.6L111.6 142.4L114.4 140.3L117.3 138.3L120.2 136.3L123 134.4L125.9 132.6L128.8 130.8L131.6 129.1L134.5 127.4L137.4 125.8L140.2 124.3L143.1 122.8L146 121.3L148.9 119.8L151.7 118.4L154.6 117.1L157.5 115.7L160.3 114.4L163.2 113.1L166.1 111.9L168.9 110.7L171.8 109.5L174.7 108.4L177.5 107.2L180.4 106.1L183.3 105L186.1 103.9L189 102.9L191.9 101.9L194.8 100.9L197.6 99.8999L200.5 98.8999L203.4 97.8999L206.2 96.9999L209.1 96.0999L212 95.1999L214.8 94.2999L217.7 93.3999L220.6 92.4999L223.4 91.6999L226.3 90.7999L229.2 89.9999L232.1 89.1999L234.9 88.3999L237.8 87.5999L240.6 86.7999L243.5 86.0999L246.4 85.2999L249.3 84.5999L252.1 83.7999L255 83.0999L257.9 82.3999L260.7 81.6999L263.6 80.9999L266.5 80.2999L269.3 79.5999L272.2 78.9999L275.1 78.2999L278 77.5999L280.8 76.9999L283.7 76.3999L286.5 75.6999L289.4 75.0999L292.3 74.4999L295.2 73.8999L298 73.2999L300.9 72.6999L303.8 72.0999L306.6 71.4999L309.5 70.8999L312.4 70.3999L315.2 69.7999L318.1 69.1999L321 68.6999L323.8 68.0999L326.7 67.5999L329.6 66.9999L332.5 66.4999L335.3 65.9999L338.2 65.4999L341.1 64.8999L343.9 64.3999L346.8 63.8999L349.7 63.3999L352.5 62.8999L355.4 62.3999" stroke="#FFC0CB" stroke-width="2.25" stroke-miterlimit="10" stroke-linecap="round" stroke-linejoin="round"/>
<path d="M68.7 183.4C68.7 181.9 69.9 180.7 71.4 180.7C72.9 180.7 74.1 181.9 74.1 183.4C74.1 184.9 72.9 186.1 71.4 186.1C69.9 186.1 68.7 184.9 68.7 183.4Z" fill="#FFC0CB"/>
<path d="M68.7 183.4C68.7 181.9 69.9 180.7 71.4 180.7C72.9 180.7 74.1 181.9 74.1 183.4C74.1 184.9 72.9 186.1 71.4 186.1C69.9 186.1 68.7 184.9 68.7 183.4Z" stroke="#FF0000" stroke-width="0.75" stroke-miterlimit="10" stroke-linecap="round" stroke-linejoin="round"/>
<path d="M100.3 146.5C100.3 145 101.5 143.8 103 143.8C104.5 143.8 105.7 145 105.7 146.5C105.7 148 104.5 149.2 103 149.2C101.5 149.2 100.3 148 100.3 146.5Z" fill="#FFC0CB"/>
<path d="M100.3 146.5C100.3 145 101.5 143.8 103 143.8C104.5 143.8 105.7 145 105.7 146.5C105.7 148 104.5 149.2 103 149.2C101.5 149.2 100.3 148 100.3 146.5Z" stroke="#FF0000" stroke-width="0.75" stroke-miterlimit="10" stroke-linecap="round" stroke-linejoin="round"/>
<path d="M131.8 132.1C131.8 130.6 133 129.4 134.5 129.4C136 129.4 137.2 130.6 137.2 132.1C137.2 133.6 136 134.8 134.5 134.8C133 134.8 131.8 133.5 131.8 132.1Z" fill="#FFC0CB"/>
<path d="M131.8 132.1C131.8 130.6 133 129.4 134.5 129.4C136 129.4 137.2 130.6 137.2 132.1C137.2 133.6 136 134.8 134.5 134.8C133 134.8 131.8 133.5 131.8 132.1Z" stroke="#FF0000" stroke-width="0.75" stroke-miterlimit="10" stroke-linecap="round" stroke-linejoin="round"/>
<path d="M163.4 116C163.4 114.5 164.6 113.3 166.1 113.3C167.6 113.3 168.8 114.5 168.8 116C168.8 117.5 167.6 118.7 166.1 118.7C164.6 118.7 163.4 117.5 163.4 116Z" fill="#FFC0CB"/>
<path d="M163.4 116C163.4 114.5 164.6 113.3 166.1 113.3C167.6 113.3 168.8 114.5 168.8 116C168.8 117.5 167.6 118.7 166.1 118.7C164.6 118.7 163.4 117.5 163.4 116Z" stroke="#FF0000" stroke-width="0.75" stroke-miterlimit="10" stroke-linecap="round" stroke-linejoin="round"/>
<path d="M194.9 103.1C194.9 101.6 196.1 100.4 197.6 100.4C199.1 100.4 200.3 101.6 200.3 103.1C200.3 104.6 199.1 105.8 197.6 105.8C196.1 105.9 194.9 104.6 194.9 103.1Z" fill="#FFC0CB"/>
<path d="M194.9 103.1C194.9 101.6 196.1 100.4 197.6 100.4C199.1 100.4 200.3 101.6 200.3 103.1C200.3 104.6 199.1 105.8 197.6 105.8C196.1 105.9 194.9 104.6 194.9 103.1Z" stroke="#FF0000" stroke-width="0.75" stroke-miterlimit="10" stroke-linecap="round" stroke-linejoin="round"/>
<path d="M226.5 93.4998C226.5 91.9998 227.7 90.7998 229.2 90.7998C230.7 90.7998 231.9 91.9998 231.9 93.4998C231.9 94.9998 230.7 96.1998 229.2 96.1998C227.7 96.1998 226.5 94.9998 226.5 93.4998Z" fill="#FFC0CB"/>
<path d="M226.5 93.4998C226.5 91.9998 227.7 90.7998 229.2 90.7998C230.7 90.7998 231.9 91.9998 231.9 93.4998C231.9 94.9998 230.7 96.1998 229.2 96.1998C227.7 96.1998 226.5 94.9998 226.5 93.4998Z" stroke="#FF0000" stroke-width="0.75" stroke-miterlimit="10" stroke-linecap="round" stroke-linejoin="round"/>
<path d="M289.6 69.4002C289.6 67.9002 290.8 66.7002 292.3 66.7002C293.8 66.7002 295 67.9002 295 69.4002C295 70.9002 293.8 72.1002 292.3 72.1002C290.8 72.1002 289.6 70.9002 289.6 69.4002Z" fill="#FFC0CB"/>
<path d="M289.6 69.4002C289.6 67.9002 290.8 66.7002 292.3 66.7002C293.8 66.7002 295 67.9002 295 69.4002C295 70.9002 293.8 72.1002 292.3 72.1002C290.8 72.1002 289.6 70.9002 289.6 69.4002Z" stroke="#FF0000" stroke-width="0.75" stroke-miterlimit="10" stroke-linecap="round" stroke-linejoin="round"/>
<path d="M352.7 58.2C352.7 56.7 353.9 55.5 355.4 55.5C356.9 55.5 358.1 56.7 358.1 58.2C358.1 59.7 356.9 60.9 355.4 60.9C353.9 60.9 352.7 59.7 352.7 58.2Z" fill="#FFC0CB"/>
<path d="M352.7 58.2C352.7 56.7 353.9 55.5 355.4 55.5C356.9 55.5 358.1 56.7 358.1 58.2C358.1 59.7 356.9 60.9 355.4 60.9C353.9 60.9 352.7 59.7 352.7 58.2Z" stroke="#FF0000" stroke-width="0.75" stroke-miterlimit="10" stroke-linecap="round" stroke-linejoin="round"/>
</g>
<defs>
<clipPath id="clip0_19_619">
<rect width="377" height="272" fill="white"/>
</clipPath>
</defs>
</svg>
